<?xml version="1.0" encoding="utf-8"?>
<svg width="166px" height="48px" viewBox="0 0 166 48" version="1.1" xmlns:xlink="http://www.w3.org/1999/xlink" xmlns="http://www.w3.org/2000/svg">
  <desc>Created with Lunacy</desc>
  <defs>
    <linearGradient x1="0.5" y1="0" x2="0.5" y2="1" id="gradient_1">
      <stop offset="0" stop-color="#78D2F7" />
      <stop offset="1" stop-color="#43A6EB" />
    </linearGradient>
    <linearGradient x1="0.5" y1="0" x2="0.5" y2="1" id="gradient_2">
      <stop offset="0" stop-color="#7D7D7D" />
      <stop offset="1" stop-color="#474747" />
    </linearGradient>
  </defs>
  <g id="Logo">
    <g id="Group" transform="translate(0 7)">
      <path d="M15.9044 11.897C14.0071 12.103 12.0097 11.9609 10.1828 11.46C8.34447 10.963 6.63153 10.1202 5.16406 9.00524C3.69506 7.89032 2.47153 6.50332 1.58982 4.9552C0.705824 3.4086 0.169765 1.70544 0 0C0.482529 1.6454 1.30459 3.15552 2.37518 4.41484C3.44576 5.67568 4.75953 6.68724 6.18877 7.40164C7.61876 8.11756 9.16424 8.53784 10.7021 8.65716C12.2514 8.77648 13.7479 8.60396 15.2207 8.15936C16.237 7.85232 17.3114 8.42232 17.6211 9.43236C17.9293 10.4424 17.3558 11.5102 16.3395 11.8172C16.2271 11.8522 16.1124 11.8758 15.9992 11.8887L15.9044 11.897" transform="translate(2.046647 25.42412)" id="Shape" fill="url(#gradient_1)" stroke="none" />
      <path d="M8.77577 1.37224C9.40894 3.18788 9.67506 5.19504 9.51371 7.08516C9.36 8.98744 8.80865 10.8145 7.94988 12.4432C6.23694 15.7096 3.27218 18.1112 0 19.1836C3.02441 17.5253 5.26041 14.7581 6.18647 11.7082C6.65677 10.1882 6.81047 8.60592 6.64682 7.09504C6.47935 5.57504 6.01365 4.17056 5.25812 2.86488C4.72971 1.94832 5.04782 0.780198 5.96929 0.254278C6.89077 -0.271642 8.06612 0.0445176 8.59529 0.960318C8.65494 1.06292 8.70312 1.16704 8.74135 1.27496L8.77577 1.37528" transform="matrix(0.9848077 0.1736482 -0.1736482 0.9848077 28.70069 18.42682)" id="Shape" fill="url(#gradient_1)" stroke="none" />
      <path d="M1.51909 0.513005C3.36509 0.0296448 5.35791 -0.123875 7.24215 0.102605C9.1348 0.322245 10.954 0.903645 12.5714 1.7898C14.1918 2.6752 15.6096 3.86613 16.713 5.2668C17.818 6.66597 18.6026 8.27109 19.0224 9.93245C18.2998 8.37597 17.2613 7.00341 16.0141 5.91813C14.7669 4.82829 13.317 4.02269 11.796 3.52717C10.2757 3.03088 8.68515 2.84316 7.14656 2.95184C5.59497 3.06281 4.14127 3.45344 2.75103 4.11009C1.79209 4.56381 0.644268 4.15797 0.186973 3.20568C-0.269556 2.25265 0.138797 1.11112 1.09774 0.658165C1.2048 0.607245 1.31339 0.567725 1.42427 0.537325L1.51833 0.513005" transform="matrix(0.9902681 0.1391731 -0.1391731 0.9902681 19.3764 1.91326)" id="Shape" fill="url(#gradient_1)" stroke="none" />
      <path d="M1.32571 18.6071C0.507476 16.8674 0.037182 14.8983 0.0035349 13.0013C-0.0400533 11.0922 0.320888 9.21804 1.00759 7.51488C2.37412 4.09108 5.07659 1.39688 8.22183 -1.63898e-15C5.38401 1.957 3.44471 4.93696 2.8383 8.06512C2.52706 9.62616 2.53624 11.2153 2.85512 12.7011C3.17859 14.1991 3.78654 15.5458 4.67206 16.7694C5.29301 17.6267 5.09724 18.8206 4.23465 19.4378C3.37206 20.0549 2.16995 19.8603 1.54901 19.0038C1.47942 18.908 1.42054 18.8077 1.37159 18.7044L1.32648 18.6071" transform="matrix(0.9659258 0.258819 -0.258819 0.9659258 5.501754 0.3234833)" id="Shape" fill="url(#gradient_1)" stroke="none" />
      <path d="M22.425 10.925L19.7815 10.925L21.3747 9.33148C21.5993 9.10685 21.5993 8.74307 21.3747 8.51843C21.15 8.2938 20.7863 8.2938 20.5616 8.51843L18.1551 10.925L16.3522 10.925L17.3087 9.96897C17.5333 9.74433 17.5333 9.38055 17.3087 9.15592C17.084 8.93128 16.7202 8.93128 16.4956 9.15592L14.7261 10.925L12.8881 10.925L16.3534 7.45967L19.757 7.45967C20.0744 7.45967 20.332 7.20207 20.332 6.88467C20.332 6.56727 20.0744 6.30967 19.757 6.30967L17.5034 6.30967L19.6301 4.18293C19.8548 3.9583 19.8548 3.59452 19.6301 3.36988C19.4055 3.14525 19.0417 3.14525 18.8171 3.36988L16.6903 5.49662L16.6903 3.243C16.6903 2.9256 16.4327 2.668 16.1153 2.668C15.7979 2.668 15.5403 2.9256 15.5403 3.243L15.5403 6.64662L12.075 10.112L12.075 8.27387L13.8441 6.5044C14.0687 6.27977 14.0687 5.91598 13.8441 5.69135C13.6195 5.46672 13.2557 5.46672 13.031 5.69135L12.075 6.64777L12.075 4.84495L14.4816 2.43838C14.7062 2.21375 14.7062 1.84997 14.4816 1.62533C14.2569 1.4007 13.8932 1.4007 13.6685 1.62533L12.075 3.21847L12.075 0.575C12.075 0.2576 11.8174 -2.84217e-14 11.5 -2.84217e-14C11.1826 -2.84217e-14 10.925 0.2576 10.925 0.575L10.925 3.21847L9.33148 1.62495C9.10685 1.40032 8.74307 1.40032 8.51843 1.62495C8.2938 1.84958 8.2938 2.21337 8.51843 2.438L10.925 4.84457L10.925 6.64738L9.96897 5.69097C9.74433 5.46633 9.38055 5.46633 9.15592 5.69097C8.93128 5.9156 8.93128 6.27938 9.15592 6.50402L10.925 8.27348L10.925 10.1116L7.45967 6.64623L7.45967 3.24262C7.45967 2.92522 7.20207 2.66762 6.88467 2.66762C6.56727 2.66762 6.30967 2.92522 6.30967 3.24262L6.30967 5.49623L4.18293 3.3695C3.9583 3.14487 3.59452 3.14487 3.36988 3.3695C3.14525 3.59413 3.14525 3.95792 3.36988 4.18255L5.49662 6.30928L3.243 6.30928C2.9256 6.30928 2.668 6.56688 2.668 6.88428C2.668 7.20168 2.9256 7.45928 3.243 7.45928L6.64662 7.45928L10.112 10.9246L8.27387 10.9246L6.5044 9.15553C6.27977 8.9309 5.91598 8.9309 5.69135 9.15553C5.46672 9.38017 5.46672 9.74395 5.69135 9.96858L6.64777 10.9246L4.84495 10.9246L2.43877 8.51805C2.21413 8.29342 1.85035 8.29342 1.62572 8.51805C1.40108 8.74268 1.40108 9.10647 1.62572 9.3311L3.21885 10.9246L0.575 10.9246C0.2576 10.925 0 11.1826 0 11.5C0 11.8174 0.2576 12.075 0.575 12.075L3.21847 12.075L1.62533 13.6685C1.4007 13.8932 1.4007 14.2569 1.62533 14.4816C1.73765 14.5939 1.88485 14.6499 2.03205 14.6499C2.17925 14.6499 2.32645 14.5939 2.43877 14.4816L4.84495 12.075L6.64777 12.075L5.69135 13.031C5.46672 13.2557 5.46672 13.6195 5.69135 13.8441C5.80367 13.9564 5.95087 14.0124 6.09807 14.0124C6.24527 14.0124 6.39247 13.9564 6.50478 13.8441L8.27425 12.075L10.1123 12.075L6.647 15.5403L3.24338 15.5403C2.92599 15.5403 2.66839 15.7979 2.66839 16.1153C2.66839 16.4327 2.92599 16.6903 3.24338 16.6903L5.497 16.6903L3.37027 18.8171C3.14563 19.0417 3.14563 19.4055 3.37027 19.6301C3.48258 19.7424 3.62978 19.7984 3.77698 19.7984C3.92418 19.7984 4.07138 19.7424 4.1837 19.6301L6.31043 17.5034L6.31043 19.757C6.31043 20.0744 6.56803 20.332 6.88543 20.332C7.20283 20.332 7.46043 20.0744 7.46043 19.757L7.46043 16.3534L10.9258 12.8881L10.9258 14.7261L9.15668 16.4956C8.93205 16.7202 8.93205 17.084 9.15668 17.3087C9.269 17.421 9.4162 17.4769 9.5634 17.4769C9.7106 17.4769 9.8578 17.421 9.97012 17.3087L10.9262 16.3522L10.9262 18.1551L8.51958 20.5612C8.29495 20.7859 8.29495 21.1497 8.51958 21.3743C8.6319 21.4866 8.7791 21.5426 8.9263 21.5426C9.0735 21.5426 9.2207 21.4866 9.33302 21.3743L10.9265 19.7812L10.9265 22.425C10.9265 22.7424 11.1841 23 11.5015 23C11.8189 23 12.0765 22.7424 12.0765 22.425L12.0765 19.7815L13.6701 21.3747C13.7824 21.487 13.9296 21.5429 14.0768 21.5429C14.224 21.5429 14.3712 21.487 14.4835 21.3747C14.7081 21.15 14.7081 20.7862 14.4835 20.5616L12.075 18.1551L12.075 16.3522L13.031 17.3087C13.1434 17.421 13.2906 17.4769 13.4378 17.4769C13.585 17.4769 13.7322 17.421 13.8445 17.3087C14.0691 17.084 14.0691 16.7202 13.8445 16.4956L12.075 14.7261L12.075 12.888L15.5403 16.3534L15.5403 19.757C15.5403 20.0744 15.7979 20.332 16.1153 20.332C16.4327 20.332 16.6903 20.0744 16.6903 19.757L16.6903 17.5034L18.8171 19.6301C18.9294 19.7424 19.0766 19.7984 19.2238 19.7984C19.371 19.7984 19.5182 19.7424 19.6305 19.6301C19.8551 19.4055 19.8551 19.0417 19.6305 18.8171L17.5038 16.6903L19.7574 16.6903C20.0748 16.6903 20.3324 16.4327 20.3324 16.1153C20.3324 15.7979 20.0748 15.5403 19.7574 15.5403L16.3538 15.5403L12.8884 12.075L14.7265 12.075L16.496 13.8441C16.6083 13.9564 16.7555 14.0124 16.9027 14.0124C17.0499 14.0124 17.1971 13.9564 17.3094 13.8441C17.5341 13.6194 17.5341 13.2557 17.3094 13.031L16.3526 12.075L18.1554 12.075L20.5616 14.4816C20.6739 14.5939 20.8211 14.6498 20.9683 14.6498C21.1155 14.6498 21.2627 14.5939 21.3751 14.4816C21.5997 14.2569 21.5997 13.8931 21.3751 13.6685L19.7819 12.075L22.4254 12.075C22.7428 12.075 23.0004 11.8174 23.0004 11.5C23.0004 11.1826 22.7428 10.925 22.4254 10.925" transform="translate(7.999805 9.000313)" id="Page-1" fill="url(#gradient_2)" stroke="none" />
    </g>
    <g id="SIMPLE" transform="translate(45.21812 0.7066666)">
      <g id="SIMPL" fill="#474747">
        <path d="M9.94 14.62Q9.8 14.48 9.43 14.24Q9.06 14 8.53 13.77Q8 13.54 7.38 13.38Q6.76 13.22 6.12 13.22Q4.98 13.22 4.42 13.64Q3.86 14.06 3.86 14.82Q3.86 15.26 4.07 15.55Q4.28 15.84 4.68 16.06Q5.08 16.28 5.69 16.46Q6.3 16.64 7.1 16.84Q8.14 17.12 8.99 17.44Q9.84 17.76 10.43 18.24Q11.02 18.72 11.34 19.39Q11.66 20.06 11.66 21.04Q11.66 22.18 11.23 22.99Q10.8 23.8 10.07 24.3Q9.34 24.8 8.39 25.03Q7.44 25.26 6.4 25.26Q4.8 25.26 3.24 24.78Q1.68 24.3 0.44 23.42L1.66 21.04Q1.84 21.22 2.31 21.51Q2.78 21.8 3.42 22.09Q4.06 22.38 4.84 22.58Q5.62 22.78 6.44 22.78Q8.72 22.78 8.72 21.32Q8.72 20.86 8.46 20.54Q8.2 20.22 7.72 19.98Q7.24 19.74 6.56 19.54Q5.88 19.34 5.04 19.1Q4.02 18.82 3.27 18.49Q2.52 18.16 2.02 17.71Q1.52 17.26 1.27 16.67Q1.02 16.08 1.02 15.26Q1.02 14.18 1.42 13.34Q1.82 12.5 2.53 11.94Q3.24 11.38 4.18 11.09Q5.12 10.8 6.2 10.8Q7.7 10.8 8.96 11.27Q10.22 11.74 11.16 12.38L9.94 14.62ZM19.14 25.1L19.14 10.9L21.9 10.9L21.9 25.1L19.14 25.1ZM41.84 15.7L41.84 25.1L44.6 25.1L44.6 10.9L41.66 10.9L37.42 18.98L33.22 10.9L30.26 10.9L30.26 25.1L33.02 25.1L33.02 15.7L36.68 22.7L38.18 22.7L41.84 15.7ZM52.96 25.1L52.96 10.9L58.98 10.9Q59.96 10.9 60.79 11.31Q61.62 11.72 62.22 12.39Q62.82 13.06 63.16 13.91Q63.5 14.76 63.5 15.62Q63.5 16.52 63.18 17.37Q62.86 18.22 62.28 18.88Q61.7 19.54 60.88 19.94Q60.06 20.34 59.08 20.34L55.72 20.34L55.72 25.1L52.96 25.1ZM70.82 10.9L70.82 25.1L80.82 25.1L80.82 22.68L73.58 22.68L73.58 10.9L70.82 10.9ZM55.72 17.92L58.92 17.92Q59.68 17.92 60.19 17.3Q60.7 16.68 60.7 15.62Q60.7 15.08 60.54 14.65Q60.38 14.22 60.12 13.92Q59.86 13.62 59.51 13.47Q59.16 13.32 58.8 13.32L55.72 13.32L55.72 17.92Z" />
      </g>
      <g id="E" fill="#474747">
        <path d="M97.76 22.68L97.76 25.1L87.9 25.1L87.9 10.9L97.58 10.9L97.58 13.32L90.66 13.32L90.66 16.74L96.64 16.74L96.64 18.98L90.66 18.98L90.66 22.68L97.76 22.68Z" />
      </g>
    </g>
    <g id="BLOOOG-UI" transform="translate(45.21812 29.70667)">
      <g id="BLOOOG">
        <path d="M28.66 14.4Q27.55 14.4 26.6275 13.9425Q25.705 13.485 25.045 12.7275Q24.385 11.97 24.025 10.995Q23.665 10.02 23.665 9Q23.665 7.935 24.0475 6.96Q24.43 5.985 25.105 5.235Q25.78 4.485 26.695 4.0425Q27.61 3.6 28.675 3.6Q29.785 3.6 30.7075 4.0725Q31.63 4.545 32.2825 5.31Q32.935 6.075 33.295 7.0425Q33.655 8.01 33.655 9.015Q33.655 10.08 33.2725 11.055Q32.89 12.03 32.2225 12.7725Q31.555 13.515 30.64 13.9575Q29.725 14.4 28.66 14.4ZM40.0425 13.9425Q40.965 14.4 42.075 14.4Q43.14 14.4 44.055 13.9575Q44.97 13.515 45.6375 12.7725Q46.305 12.03 46.6875 11.055Q47.07 10.08 47.07 9.015Q47.07 8.01 46.71 7.0425Q46.35 6.075 45.6975 5.31Q45.045 4.545 44.1225 4.0725Q43.2 3.6 42.09 3.6Q41.025 3.6 40.11 4.0425Q39.195 4.485 38.52 5.235Q37.845 5.985 37.4625 6.96Q37.08 7.935 37.08 9Q37.08 10.02 37.44 10.995Q37.8 11.97 38.46 12.7275Q39.12 13.485 40.0425 13.9425ZM55.49 14.4Q54.38 14.4 53.4575 13.9425Q52.535 13.485 51.875 12.7275Q51.215 11.97 50.855 10.995Q50.495 10.02 50.495 9Q50.495 7.935 50.8775 6.96Q51.26 5.985 51.935 5.235Q52.61 4.485 53.525 4.0425Q54.44 3.6 55.505 3.6Q56.615 3.6 57.5375 4.0725Q58.46 4.545 59.1125 5.31Q59.765 6.075 60.125 7.0425Q60.485 8.01 60.485 9.015Q60.485 10.08 60.1025 11.055Q59.72 12.03 59.0525 12.7725Q58.385 13.515 57.47 13.9575Q56.555 14.4 55.49 14.4ZM66.9025 13.935Q67.81 14.4 68.89 14.4C70.18 14.4 71.32 13.855 72.31 12.765L72.31 14.325L73.195 14.325L73.195 9.09L69.94 9.09L69.94 9.9L72.31 9.9L72.31 11.67Q71.545 12.6 70.7125 13.0275Q69.88 13.455 68.965 13.455Q68.11 13.455 67.3825 13.095Q66.655 12.735 66.115 12.1275Q65.575 11.52 65.2675 10.71Q64.96 9.9 64.96 9Q64.96 8.145 65.23 7.3425Q65.5 6.54 66.0025 5.9175Q66.505 5.295 67.2175 4.92Q67.93 4.545 68.815 4.545Q69.88 4.545 70.72 5.01Q71.56 5.475 72.085 6.465L72.895 5.925Q72.64 5.415 72.2725 4.9875Q71.905 4.56 71.4025 4.2525Q70.9 3.945 70.255 3.7725Q69.61 3.6 68.83 3.6Q67.765 3.6 66.865 4.0425Q65.965 4.485 65.305 5.2275Q64.645 5.97 64.2775 6.945Q63.91 7.92 63.91 8.985Q63.91 10.005 64.285 10.9725Q64.66 11.94 65.3275 12.705Q65.995 13.47 66.9025 13.935ZM9.105 12.6825Q9.345 12.18 9.345 11.58Q9.345 10.605 8.8125 9.87Q8.28 9.135 7.365 8.865Q8.085 8.535 8.49 7.8675Q8.895 7.2 8.895 6.39Q8.895 5.895 8.7225 5.4075Q8.55 4.92 8.235 4.5375Q7.92 4.155 7.47 3.915Q7.02 3.675 6.465 3.675L1.335 3.675L1.335 14.325L6.36 14.325Q6.975 14.325 7.515 14.1225Q8.055 13.92 8.46 13.5525Q8.865 13.185 9.105 12.6825ZM13.475 3.675L13.475 14.325L20.675 14.325L20.675 13.395L14.525 13.395L14.525 3.675L13.475 3.675ZM24.715 9Q24.715 9.87 25 10.6725Q25.285 11.475 25.81 12.0975Q26.335 12.72 27.055 13.0875Q27.775 13.455 28.66 13.455Q29.56 13.455 30.295 13.065Q31.03 12.675 31.54 12.045Q32.05 11.415 32.3275 10.62Q32.605 9.825 32.605 9Q32.605 8.13 32.3125 7.3275Q32.02 6.525 31.495 5.91Q30.97 5.295 30.25 4.9275Q29.53 4.56 28.66 4.56Q27.76 4.56 27.025 4.9425Q26.29 5.325 25.78 5.955Q25.27 6.585 24.9925 7.38Q24.715 8.175 24.715 9ZM38.415 10.6725Q38.13 9.87 38.13 9Q38.13 8.175 38.4075 7.38Q38.685 6.585 39.195 5.955Q39.705 5.325 40.44 4.9425Q41.175 4.56 42.075 4.56Q42.945 4.56 43.665 4.9275Q44.385 5.295 44.91 5.91Q45.435 6.525 45.7275 7.3275Q46.02 8.13 46.02 9Q46.02 9.825 45.7425 10.62Q45.465 11.415 44.955 12.045Q44.445 12.675 43.71 13.065Q42.975 13.455 42.075 13.455Q41.19 13.455 40.47 13.0875Q39.75 12.72 39.225 12.0975Q38.7 11.475 38.415 10.6725ZM51.545 9Q51.545 9.87 51.83 10.6725Q52.115 11.475 52.64 12.0975Q53.165 12.72 53.885 13.0875Q54.605 13.455 55.49 13.455Q56.39 13.455 57.125 13.065Q57.86 12.675 58.37 12.045Q58.88 11.415 59.1575 10.62Q59.435 9.825 59.435 9Q59.435 8.13 59.1425 7.3275Q58.85 6.525 58.325 5.91Q57.8 5.295 57.08 4.9275Q56.36 4.56 55.49 4.56Q54.59 4.56 53.855 4.9425Q53.12 5.325 52.61 5.955Q52.1 6.585 51.8225 7.38Q51.545 8.175 51.545 9ZM2.385 8.52L2.385 4.59L6.135 4.59Q6.51 4.59 6.825 4.7475Q7.14 4.905 7.3725 5.1675Q7.605 5.43 7.7325 5.79Q7.86 6.15 7.86 6.555Q7.86 6.945 7.725 7.2975Q7.59 7.65 7.35 7.92Q7.11 8.19 6.7725 8.355Q6.435 8.52 6.045 8.52L2.385 8.52ZM8.16 10.6425Q8.295 11.01 8.295 11.4Q8.295 11.79 8.145 12.1575Q7.995 12.525 7.7325 12.8025Q7.47 13.08 7.1175 13.245Q6.765 13.41 6.36 13.41L2.385 13.41L2.385 9.375L6.465 9.375Q6.855 9.375 7.1925 9.5475Q7.53 9.72 7.7775 9.9975Q8.025 10.275 8.16 10.6425Z" />
      </g>
      <g id="U" fill="#474747">
        <path d="M85.605 12.57Q86.34 12.57 86.8425 12.27Q87.345 11.97 87.6525 11.49Q87.96 11.01 88.0875 10.3875Q88.215 9.765 88.215 9.105L88.215 3.675L90.27 3.675L90.27 9.105Q90.27 10.2 90.0075 11.16Q89.745 12.12 89.1825 12.84Q88.62 13.56 87.735 13.98Q86.85 14.4 85.62 14.4Q84.345 14.4 83.4525 13.9575Q82.56 13.515 82.005 12.7875Q81.45 12.06 81.2025 11.1Q80.955 10.14 80.955 9.105L80.955 3.675L83.025 3.675L83.025 9.105Q83.025 9.78 83.1525 10.4025Q83.28 11.025 83.5875 11.505Q83.895 11.985 84.39 12.2775Q84.885 12.57 85.605 12.57Z" />
      </g>
      <g id="I" fill="#474747">
        <path d="M94.505 14.325L94.505 3.675L96.575 3.675L96.575 14.325L94.505 14.325Z" />
      </g>
    </g>
  </g>
</svg>